<?xml version="1.0" encoding="UTF-8" standalone="no"?>
<svg width="800" height="600" viewBox="0 0 800 600" xmlns="http://www.w3.org/2000/svg">
  <defs>
    <linearGradient id="gradient-hero" x1="0%" y1="0%" x2="100%" y2="100%">
      <stop offset="0%" stop-color="#1a1a2e" />
      <stop offset="100%" stop-color="#2a2a5a" />
    </linearGradient>
    <linearGradient id="gradient-chart" x1="0%" y1="0%" x2="100%" y2="0%">
      <stop offset="0%" stop-color="#3a86ff" />
      <stop offset="50%" stop-color="#8338ec" />
      <stop offset="100%" stop-color="#ff006e" />
    </linearGradient>
  </defs>
  
  <!-- Dashboard Background -->
  <rect width="800" height="600" fill="url(#gradient-hero)" />
  
  <!-- Dashboard Elements -->
  <rect x="50" y="50" width="700" height="100" rx="10" ry="10" fill="#ffffff" opacity="0.1" />
  <rect x="50" y="170" width="340" height="180" rx="10" ry="10" fill="#ffffff" opacity="0.1" />
  <rect x="410" y="170" width="340" height="180" rx="10" ry="10" fill="#ffffff" opacity="0.1" />
  <rect x="50" y="370" width="700" height="180" rx="10" ry="10" fill="#ffffff" opacity="0.1" />
  
  <!-- Chart Elements -->
  <polyline points="80,300 140,260 200,280 260,220 320,240 380,200" stroke="url(#gradient-chart)" stroke-width="4" fill="none" />
  <circle cx="80" cy="300" r="6" fill="#3a86ff" />
  <circle cx="140" cy="260" r="6" fill="#3a86ff" />
  <circle cx="200" cy="280" r="6" fill="#3a86ff" />
  <circle cx="260" cy="220" r="6" fill="#3a86ff" />
  <circle cx="320" cy="240" r="6" fill="#3a86ff" />
  <circle cx="380" cy="200" r="6" fill="#3a86ff" />
  
  <!-- Data Visualization -->
  <rect x="440" y="200" width="40" height="120" rx="5" ry="5" fill="#3a86ff" opacity="0.8" />
  <rect x="500" y="240" width="40" height="80" rx="5" ry="5" fill="#8338ec" opacity="0.8" />
  <rect x="560" y="180" width="40" height="140" rx="5" ry="5" fill="#ff006e" opacity="0.8" />
  <rect x="620" y="220" width="40" height="100" rx="5" ry="5" fill="#06d6a0" opacity="0.8" />
  
  <!-- Dashboard Data -->
  <rect x="80" y="400" width="640" height="1" fill="#ffffff" opacity="0.2" />
  <rect x="80" y="440" width="640" height="1" fill="#ffffff" opacity="0.2" />
  <rect x="80" y="480" width="640" height="1" fill="#ffffff" opacity="0.2" />
  <rect x="80" y="520" width="640" height="1" fill="#ffffff" opacity="0.2" />
  
  <!-- Decorative Elements -->
  <circle cx="700" cy="100" r="20" fill="#ff006e" opacity="0.8" />
  <circle cx="650" cy="100" r="15" fill="#8338ec" opacity="0.6" />
  <circle cx="610" cy="100" r="10" fill="#3a86ff" opacity="0.4" />
</svg>
